<?xml version="1.0" encoding="UTF-8"?>
<svg id="Layer_2" data-name="Layer 2" xmlns="http://www.w3.org/2000/svg" xmlns:xlink="http://www.w3.org/1999/xlink" viewBox="0 0 1164.94 518.41">
  <defs>
    <style>
      .cls-1 {
        fill: #107ca0;
      }

      .cls-2 {
        fill: #71c29a;
      }

      .cls-3 {
        fill: url(#linear-gradient);
      }
    </style>
    <linearGradient id="linear-gradient" x1="407.52" y1="224.87" x2="657.24" y2="8.03" gradientUnits="userSpaceOnUse">
      <stop offset="0" stop-color="#107ca0"/>
      <stop offset="1" stop-color="#71c29a"/>
    </linearGradient>
  </defs>
  <g id="Layer_1-2" data-name="Layer 1">
    <g>
      <g>
        <g>
          <path class="cls-1" d="M89.99,276.63v112.69h-18.48v-49.29H18.48v49.29H0v-112.69h18.48v48.32h53.02v-48.32h18.48Z"/>
          <path class="cls-1" d="M144.95,291.54v33.08h38.91v15.08h-38.91v34.54h43.78v15.08h-62.26v-112.85h62.26v15.08h-43.78Z"/>
          <path class="cls-1" d="M242.07,276.63v112.69h-18.48v-112.69h18.48Z"/>
          <path class="cls-1" d="M297.03,374.4h38.1v14.92h-56.59v-112.69h18.48v97.77Z"/>
          <path class="cls-1" d="M481.38,276.63v112.69h-18.48v-77.18l-34.37,77.18h-12.81l-34.53-77.18v77.18h-18.48v-112.69h19.95l39.56,88.37,39.4-88.37h19.78Z"/>
          <path class="cls-1" d="M585.8,366.29h-47.18l-8.11,23.02h-19.3l40.37-112.85h21.4l40.37,112.85h-19.46l-8.11-23.02ZM580.61,351.21l-18.32-52.37-18.48,52.37h36.81Z"/>
          <path class="cls-1" d="M659.73,386.48c-6.06-2.65-10.81-6.41-14.27-11.27-3.46-4.86-5.19-10.54-5.19-17.02h19.78c.43,4.86,2.35,8.86,5.76,12,3.41,3.14,8.19,4.7,14.35,4.7s11.35-1.54,14.92-4.62c3.57-3.08,5.35-7.05,5.35-11.92,0-3.78-1.11-6.86-3.32-9.24-2.22-2.38-4.97-4.22-8.27-5.51-3.3-1.3-7.86-2.7-13.7-4.22-7.35-1.95-13.32-3.92-17.92-5.92-4.6-2-8.51-5.11-11.75-9.32-3.24-4.22-4.86-9.84-4.86-16.86,0-6.48,1.62-12.16,4.86-17.02,3.24-4.86,7.78-8.59,13.62-11.19,5.83-2.59,12.59-3.89,20.27-3.89,10.92,0,19.86,2.73,26.83,8.19,6.97,5.46,10.84,12.95,11.59,22.46h-20.43c-.32-4.11-2.27-7.62-5.84-10.54-3.57-2.92-8.27-4.38-14.1-4.38-5.3,0-9.62,1.35-12.97,4.05-3.35,2.7-5.03,6.59-5.03,11.67,0,3.46,1.06,6.3,3.16,8.51,2.11,2.22,4.78,3.97,8.03,5.27,3.24,1.3,7.67,2.7,13.29,4.22,7.46,2.05,13.54,4.11,18.24,6.16,4.7,2.05,8.7,5.22,12,9.49,3.3,4.27,4.95,9.97,4.95,17.11,0,5.73-1.54,11.13-4.62,16.21-3.08,5.08-7.57,9.16-13.46,12.24-5.89,3.08-12.84,4.62-20.83,4.62-7.57,0-14.38-1.32-20.43-3.97Z"/>
          <path class="cls-1" d="M769.82,386.48c-6.06-2.65-10.81-6.41-14.27-11.27-3.46-4.86-5.19-10.54-5.19-17.02h19.78c.43,4.86,2.35,8.86,5.76,12,3.4,3.14,8.19,4.7,14.35,4.7s11.35-1.54,14.92-4.62c3.57-3.08,5.35-7.05,5.35-11.92,0-3.78-1.11-6.86-3.32-9.24-2.22-2.38-4.97-4.22-8.27-5.51-3.3-1.3-7.87-2.7-13.7-4.22-7.35-1.95-13.33-3.92-17.92-5.92-4.6-2-8.51-5.11-11.75-9.32-3.25-4.22-4.87-9.84-4.87-16.86,0-6.48,1.62-12.16,4.87-17.02,3.24-4.86,7.78-8.59,13.62-11.19,5.84-2.59,12.59-3.89,20.27-3.89,10.92,0,19.86,2.73,26.84,8.19,6.97,5.46,10.83,12.95,11.59,22.46h-20.43c-.32-4.11-2.27-7.62-5.84-10.54-3.57-2.92-8.27-4.38-14.11-4.38-5.3,0-9.62,1.35-12.97,4.05-3.35,2.7-5.03,6.59-5.03,11.67,0,3.46,1.05,6.3,3.16,8.51,2.11,2.22,4.78,3.97,8.03,5.27,3.24,1.3,7.67,2.7,13.3,4.22,7.46,2.05,13.54,4.11,18.24,6.16,4.7,2.05,8.7,5.22,12,9.49,3.3,4.27,4.95,9.97,4.95,17.11,0,5.73-1.54,11.13-4.62,16.21-3.08,5.08-7.57,9.16-13.46,12.24-5.89,3.08-12.84,4.62-20.83,4.62-7.57,0-14.38-1.32-20.43-3.97Z"/>
          <path class="cls-1" d="M881.69,291.54v33.08h38.91v15.08h-38.91v34.54h43.78v15.08h-62.26v-112.85h62.26v15.08h-43.78Z"/>
          <path class="cls-1" d="M978.65,276.63v71.83c0,8.54,2.24,14.97,6.73,19.3,4.48,4.32,10.73,6.49,18.73,6.49s14.4-2.16,18.89-6.49c4.48-4.32,6.73-10.75,6.73-19.3v-71.83h18.48v71.5c0,9.19-2,16.97-6,23.35-4,6.38-9.35,11.13-16.05,14.27-6.7,3.14-14.1,4.7-22.21,4.7s-15.48-1.57-22.13-4.7c-6.65-3.13-11.92-7.89-15.81-14.27-3.89-6.38-5.83-14.16-5.83-23.35v-71.5h18.48Z"/>
          <path class="cls-1" d="M1142.89,389.31l-25.94-45.07h-14.1v45.07h-18.48v-112.69h38.91c8.65,0,15.97,1.52,21.97,4.54,6,3.03,10.48,7.08,13.46,12.16,2.97,5.08,4.46,10.76,4.46,17.02,0,7.35-2.14,14.03-6.41,20.02-4.27,6-10.84,10.08-19.7,12.24l27.89,46.7h-22.05ZM1102.85,329.48h20.43c6.92,0,12.13-1.73,15.65-5.19,3.51-3.46,5.27-8.11,5.27-13.94s-1.73-10.4-5.19-13.7c-3.46-3.3-8.7-4.95-15.73-4.95h-20.43v37.78Z"/>
        </g>
        <g>
          <g>
            <path class="cls-2" d="M346.58,443.09c6.36,3.24,11.27,7.88,14.73,13.93,3.46,6.05,5.2,13.12,5.2,21.19s-1.73,15.08-5.2,21.01c-3.47,5.94-8.38,10.49-14.73,13.65-6.36,3.16-13.76,4.74-22.22,4.74h-25.92v-79.37h25.92c8.45,0,15.86,1.62,22.22,4.85ZM345.72,499.45c4.95-5.03,7.42-12.11,7.42-21.24s-2.47-16.41-7.42-21.59c-4.95-5.18-12.07-7.77-21.36-7.77h-12.9v58.13h12.9c9.29,0,16.41-2.51,21.36-7.54Z"/>
            <path class="cls-2" d="M403.8,513.21c-6.21-3.46-11.12-8.3-14.73-14.5-3.62-6.2-5.42-13.19-5.42-20.96s1.81-14.73,5.42-20.9c3.61-6.17,8.53-10.98,14.73-14.45,6.2-3.46,13-5.2,20.38-5.2s14.3,1.73,20.5,5.2c6.2,3.47,11.1,8.28,14.68,14.45,3.58,6.17,5.37,13.13,5.37,20.9s-1.79,14.75-5.37,20.96c-3.58,6.21-8.47,11.04-14.68,14.5-6.2,3.47-13.04,5.2-20.5,5.2s-14.18-1.73-20.38-5.2ZM438.23,503.51c4.11-2.4,7.33-5.82,9.65-10.28,2.32-4.45,3.48-9.61,3.48-15.47s-1.16-11-3.48-15.42c-2.32-4.41-5.54-7.8-9.65-10.16-4.11-2.36-8.8-3.54-14.05-3.54s-9.93,1.18-14.05,3.54c-4.11,2.36-7.33,5.75-9.65,10.16-2.32,4.42-3.48,9.56-3.48,15.42s1.16,11.02,3.48,15.47c2.32,4.45,5.54,7.88,9.65,10.28,4.11,2.4,8.8,3.6,14.05,3.6s9.94-1.2,14.05-3.6Z"/>
            <path class="cls-2" d="M569.68,438.24v79.37h-13.02v-54.36l-24.21,54.36h-9.02l-24.33-54.36v54.36h-13.02v-79.37h14.05l27.87,62.24,27.75-62.24h13.93Z"/>
            <path class="cls-2" d="M608.4,448.74v23.3h27.41v10.62h-27.41v24.33h30.83v10.62h-43.85v-79.49h43.85v10.62h-30.83Z"/>
            <path class="cls-2" d="M729,517.61h-13.02l-39.17-59.27v59.27h-13.02v-79.49h13.02l39.17,59.16v-59.16h13.02v79.49Z"/>
            <path class="cls-2" d="M767.71,438.24v79.37h-13.02v-79.37h13.02Z"/>
            <path class="cls-2" d="M794.49,456.85c3.61-6.17,8.53-10.98,14.73-14.45,6.2-3.46,13-5.2,20.38-5.2,8.45,0,15.97,2.07,22.56,6.22,6.58,4.15,11.36,10.03,14.33,17.64h-15.65c-2.06-4.19-4.91-7.31-8.57-9.36-3.65-2.06-7.88-3.08-12.68-3.08-5.25,0-9.93,1.18-14.05,3.54-4.11,2.36-7.33,5.75-9.65,10.16-2.32,4.42-3.48,9.56-3.48,15.42s1.16,11,3.48,15.42c2.32,4.42,5.54,7.82,9.65,10.22,4.11,2.4,8.8,3.6,14.05,3.6,4.8,0,9.02-1.03,12.68-3.08,3.65-2.06,6.51-5.18,8.57-9.37h15.65c-2.97,7.62-7.75,13.48-14.33,17.59-6.59,4.11-14.1,6.17-22.56,6.17-7.46,0-14.28-1.73-20.44-5.2-6.17-3.46-11.06-8.28-14.68-14.45-3.62-6.17-5.42-13.13-5.42-20.9s1.81-14.73,5.42-20.9Z"/>
          </g>
          <g>
            <rect class="cls-2" x="904.84" y="473.44" width="260.1" height="8.74"/>
            <rect class="cls-2" y="473.44" width="260.1" height="8.74"/>
          </g>
        </g>
      </g>
      <path class="cls-3" d="M582.14,76.48h-105.52V0h-47.45v200.41h47.45v-76.48h77.76v76.48h81.21c13.76,0,27.01-2.81,39-7.88,18.01-7.63,33.27-20.31,44.07-36.29,10.8-15.96,17.14-35.36,17.12-56.02,0-6.89-.7-13.65-2.03-20.17-1.35-6.53-3.3-12.83-5.85-18.85-7.63-18.01-20.31-33.25-36.29-44.05C675.65,6.36,656.25.02,635.58.02h-129.89l47.45,47.45h82.44c7.34.02,14.21,1.48,20.52,4.14,9.43,3.99,17.54,10.7,23.23,19.15,5.69,8.45,9,18.47,9,29.47,0,7.34-1.48,14.21-4.14,20.52-3.99,9.43-10.7,17.54-19.13,23.23-8.45,5.69-18.47,8.98-29.47,9h-33.76v-56.8l-19.68-19.68Z"/>
    </g>
  </g>
</svg>