<?xml version="1.0" encoding="UTF-8"?>
<svg id="Layer_2" xmlns="http://www.w3.org/2000/svg" version="1.1" xmlns:xlink="http://www.w3.org/1999/xlink" viewBox="0 0 404.5 264.4">
  <!-- Generator: Adobe Illustrator 29.3.1, SVG Export Plug-In . SVG Version: 2.1.0 Build 151)  -->
  <defs>
    <style>
      .st0 {
        fill: url(#linear-gradient);
      }
    </style>
    <linearGradient id="linear-gradient" x1="27.3" y1="327.1" x2="277" y2="544" gradientTransform="translate(0 584) scale(1 -1)" gradientUnits="userSpaceOnUse">
      <stop offset="0" stop-color="#107ca0"/>
      <stop offset="1" stop-color="#71c29a"/>
    </linearGradient>
  </defs>
  <path class="st0" d="M201.9,108.5h-105.5V32h-47.5v200.4h47.5v-76.5h77.8v76.5h81.2c13.8,0,27-2.8,39-7.9,18-7.6,33.3-20.3,44.1-36.3,10.8-16,17.1-35.4,17.1-56,0-6.9-.7-13.7-2-20.2-1.3-6.5-3.3-12.8-5.8-18.8-7.6-18-20.3-33.2-36.3-44-16-10.8-35.4-17.1-56-17.1H125.5l47.5,47.5h82.4c7.3,0,14.2,1.5,20.5,4.1,9.4,4,17.5,10.7,23.2,19.2,5.7,8.4,9,18.5,9,29.5s-1.5,14.2-4.1,20.5c-4,9.4-10.7,17.5-19.1,23.2-8.5,5.7-18.5,9-29.5,9h-33.8v-56.8l-19.7-19.7h0Z"/>
</svg>